<svg xmlns="http://www.w3.org/2000/svg" id="_Слой_1" data-name="Слой 1" viewBox="0 0 500 500"><defs><linearGradient id="_Безымянный_градиент" x1="206.48" x2="319.79" y1="325.88" y2="325.88" data-name="Безымянный градиент" gradientTransform="matrix(1 0 0 -1 0 500)" gradientUnits="userSpaceOnUse"><stop offset=".06" stop-color="#966d97"/><stop offset=".52" stop-color="#e5aea9"/></linearGradient><linearGradient id="_Безымянный_градиент_2" x1="172.95" x2="305.74" y1="399.9" y2="134.27" data-name="Безымянный градиент 2" gradientTransform="matrix(1 0 0 -1 0 500)" gradientUnits="userSpaceOnUse"><stop offset=".06" stop-color="#966d97"/><stop offset=".52" stop-color="#e5aea9"/></linearGradient><linearGradient id="_Безымянный_градиент_3" x1="232.08" x2="258.18" y1="177.84" y2="291.89" data-name="Безымянный градиент 3" gradientTransform="matrix(1 0 0 -1 0 500)" gradientUnits="userSpaceOnUse"><stop offset=".12" stop-color="#966d97"/><stop offset=".72" stop-color="#e5aea9"/></linearGradient><linearGradient id="_Безымянный_градиент_4" x1="274.97" x2="200.11" y1="460.35" y2="160.91" data-name="Безымянный градиент 4" gradientTransform="matrix(1 0 0 -1 0 500)" gradientUnits="userSpaceOnUse"><stop offset=".12" stop-color="#966d97"/><stop offset=".52" stop-color="#e5aea9"/></linearGradient><linearGradient id="_Безымянный_градиент_5" x1="313.64" x2="275.53" y1="388.69" y2="297.89" data-name="Безымянный градиент 5" gradientTransform="matrix(1 0 0 -1 0 500)" gradientUnits="userSpaceOnUse"><stop offset=".06" stop-color="#966d97"/><stop offset=".52" stop-color="#e5aea9"/></linearGradient><linearGradient id="_Безымянный_градиент_6" x1="197.58" x2="230.96" y1="246.18" y2="274.93" data-name="Безымянный градиент 6" gradientTransform="matrix(1 0 0 -1 0 500)" gradientUnits="userSpaceOnUse"><stop offset=".12" stop-color="#966d97"/><stop offset=".52" stop-color="#e5aea9"/></linearGradient><linearGradient id="_Безымянный_градиент_7" x1="191.66" x2="244.82" y1="191.69" y2="275.23" data-name="Безымянный градиент 7" gradientTransform="matrix(1 0 0 -1 0 500)" gradientUnits="userSpaceOnUse"><stop offset=".12" stop-color="#966d97"/><stop offset=".52" stop-color="#e5aea9"/></linearGradient><linearGradient id="_Безымянный_градиент_8" x1="296.65" x2="252.07" y1="400.37" y2="331.35" data-name="Безымянный градиент 8" gradientTransform="matrix(1 0 0 -1 0 500)" gradientUnits="userSpaceOnUse"><stop offset=".06" stop-color="#966d97"/><stop offset=".52" stop-color="#e5aea9"/></linearGradient><style>.cls-2{fill:#fff}.cls-11{fill:#ebc3b9}</style></defs><rect width="500" height="500" rx="71" ry="71" style="fill:#2d203c"/><path d="M246.75 28.42c-1.82 3.65-3.86 7.21-5.43 10.96-9.2 21.94-11.11 44.46-6.25 67.83 5.23 25.16 18.6 45.68 34.86 64.77 10.9 12.79 22.41 25.12 32.55 38.48 22.42 29.56 22.96 66.86 2.19 97.54-2.97 4.39-6.35 8.5-10.24 12.36 1.28-6.23 2.72-12.44 3.82-18.71 3.3-18.86-.07-36.86-7.14-54.41-7.73-19.21-20.54-34.78-34.68-49.5-13.31-13.85-26.74-27.62-36.17-44.65-14.83-26.8-18.18-54.72-7.65-83.7 5.82-16.01 15.36-29.54 29.76-39.21 1.21-.81 2.48-1.53 3.72-2.29.22.18.45.35.67.53Z" style="fill:url(#_Безымянный_градиент)"/><path d="M253.9 361.9c3.48-9.16 7.68-17.73 9.99-26.78 6.87-26.92 4.15-53.1-7.48-78.45-8.35-18.21-20.84-33.36-33.98-48.14-10.88-12.24-22.21-24.08-30.55-38.43-18.61-32-14.76-70.53 10.24-98 1.24-1.37 2.52-2.7 4.41-4.72-1.4 5.62-2.63 10.36-3.75 15.13-5.36 22.85-1.15 44.48 8.38 65.42 7.58 16.65 19.43 30.18 31.75 43.37 13.1 14.02 26.77 27.57 36.24 44.57 16.91 30.35 19.37 61.45 4.33 93.13-6.5 13.7-16.25 24.93-29.58 32.89Z" style="fill:url(#_Безымянный_градиент_2)"/><path d="M249.79 257.24c4.9 10.41 8.91 20.25 10.47 30.85.99 6.71 1.27 13.52 1.64 20.3.09 1.62-.28 3.62-1.21 4.88-7.6 10.26-15.39 20.38-23.28 30.75-11.82-7.22-22.03-15.59-31.42-26 14.45-20.05 28.89-40.09 43.8-60.78" style="fill:url(#_Безымянный_градиент_3)"/><path d="M250.24 131.77c-8.81-17.09-12.45-34.2-12.21-52.21 0-.76.23-1.65.67-2.24 7.82-10.57 15.68-21.11 23.71-31.9 12.27 7.01 22.26 15.41 31.79 25.63-14.51 20.03-29 40.05-43.97 60.73Z" style="fill:url(#_Безымянный_градиент_4)"/><path d="M302.55 82.76c25.8 24.92 21.81 85.68-6.47 109.62-6.81-7.65-13.63-15.29-20.49-22.99 20.92-25.12 34.66-52.26 26.96-86.62Z" style="fill:url(#_Безымянный_градиент_5)"/><path d="M203.94 196.94c6.77 7.62 13.4 15.07 20.34 22.87-10.24 11.93-18.62 24.91-24.07 39.71-5.5 14.94-6.54 30.08-2.91 45.96-25.47-23.44-21.76-82.53 6.65-108.54Z" style="fill:url(#_Безымянный_градиент_6)"/><path d="M203.59 311.18c-8.94-34.32 3.59-61.49 24.68-87.19 4.71 6.66 9.36 12.9 13.66 19.36 5.32 8 5.05 7.97-.65 15.74-10.48 14.29-20.76 28.72-31.13 43.09-2.01 2.78-4.05 5.55-6.57 9z" style="fill:url(#_Безымянный_градиент_7)"/><path d="M295.91 78.42c8.91 26.8.16 58.6-24.82 86.72-5.78-8.54-11.5-16.83-16.96-25.28-.59-.91-.2-3.08.53-4.1 10.47-14.64 21.08-29.18 31.64-43.76 3.18-4.4 6.27-8.85 9.62-13.59Z" style="fill:url(#_Безымянный_градиент_8)"/><path d="M72.76 378.82c9.95 0 19.7-.53 29.37.17 7.45.55 12.1 6.79 12.29 14.35.12 4.61-1.09 7.09-5.01 10.81 2.12 3.66 4.98 6.92 6.03 10.75 2.36 8.55-2.83 16.47-11.83 17.21-10.1.82-20.3.19-30.85.19v-53.47Zm9.49 44.41c6.04 0 11.67.19 17.29-.07 3.39-.16 6.38-1.68 6.59-5.89.21-4.29-2.43-6.66-6.04-7.07-5.84-.66-11.74-.69-17.84-1zm.02-23.02c5.78 0 11.15.13 16.51-.05 3.09-.11 5.85-1.24 6.12-5.18.29-4.18-2.13-6.6-5.61-6.89-5.59-.46-11.23-.12-17.02-.12v12.25ZM249.91 433.06h-7.57c-.35-1.4-.67-2.71-1.11-4.47-3.84 3.91-8.1 5.99-13.3 5.4-4.99-.56-9.22-2.6-12.59-6.59-5.57-6.59-5.49-20.71.19-27.46 6.2-7.37 15.73-7.91 25.76-1.02v-20h8.64v54.15h-.02Zm-29.57-19.6c.03 6.97 3.94 11.5 9.95 11.51 6.01.02 10.44-4.79 10.33-11.19s-4.58-11.02-10.63-11c-5.73.02-9.68 4.39-9.65 10.67ZM189.11 432.99h-7.9c-.39-1.24-.78-2.51-1.19-3.83-9.67 6.68-19.18 6.43-24.89-.55-6.44-7.87-6.34-21.66.21-28.95 6.48-7.2 15.83-7.76 24.26-1.31 1.59-6.09 5.93-3.01 9.51-3.51v38.14Zm-9.01-19.14c.14-6.6-3.67-11.12-9.5-11.28-6.61-.18-11.15 4.27-11.33 11.1-.18 6.39 4.52 11.71 10.41 11.76 6.08.06 10.28-4.61 10.43-11.58z" class="cls-2"/><path d="M426.9 417.29h-26.91c1.06 8.18 8.95 10.1 19.87 5.06 1.61 1.57 3.31 3.22 4.99 4.86-5.28 7.01-18.3 8.94-25.96 3.96-8.08-5.25-11.07-16.56-6.99-26.45 3.76-9.11 13.9-13.39 24.04-10.15 8.17 2.61 12.62 11.59 10.97 22.71h-.01Zm-8.81-8.1c-.55-5.43-3.92-6.63-7.7-6.84-5.86-.33-9.13 1.97-10.18 6.84zM306.04 413.59c-.02-11.18 7.91-19.59 18.5-19.64 10.89-.05 18.61 8.09 18.77 19.82.16 11.51-7.68 19.99-18.53 20.02-11.27.03-18.73-8-18.74-20.2m28.15.46c.03-6.34-3.91-11.23-9.14-11.36-5.7-.14-10.04 4.5-10.16 10.86-.13 6.66 3.73 11.35 9.45 11.46 5.94.12 9.82-4.21 9.86-10.96ZM285.44 387.75h-15.87v-9.09h41.78v9h-16.46V433h-9.45zM385.15 433.03h-9.65v-13.25c0-2.46.12-4.94-.05-7.39-.42-5.94-3.92-9.7-8.7-9.52-4.9.18-8.86 4.42-8.99 10.04-.16 6.58-.04 13.17-.04 19.99h-8.51v-37.84h7.26c.4 1.19.87 2.57 1.38 4.11 1.71-1.19 3.19-2.48 4.86-3.34 8.22-4.25 18.35-.26 20.27 9.25 1.81 8.99 1.52 18.44 2.17 27.95" class="cls-11"/><path d="M121.7 394.8c3.29.45 7.05-2.03 8.92 2.82 7.23-5.42 13.77-5.36 18.83.35-1.29 2.44-2.62 4.95-3.59 6.78-3.38-.41-6.22-1.25-8.96-.97-3.98.4-6.56 4.18-6.62 8.93-.09 6.59-.02 13.18-.02 20.11h-8.56v-38.01ZM205.14 433.06h-8.39v-38.21h8.39zM206.27 383.83c-.13 3.28-1.9 5.43-5.06 5.54-3 .1-5.35-1.35-5.52-5.07-.16-3.57 1.87-5.95 5.12-6.01 2.9-.05 5.36 2.37 5.46 5.54" class="cls-2"/></svg>