<svg xmlns="http://www.w3.org/2000/svg" xmlns:xlink="http://www.w3.org/1999/xlink" data-name="Слой 1" viewBox="0 0 500 500"><defs><linearGradient id="a" x1="193.4" x2="340.75" y1="222.99" y2="222.99" data-name="Безымянный градиент 6" gradientUnits="userSpaceOnUse"><stop offset=".06" stop-color="#966d97"/><stop offset=".52" stop-color="#e5aea9"/></linearGradient><linearGradient xlink:href="#a" id="c" x1="149.81" x2="322.49" y1="126.73" y2="472.15" data-name="Безымянный градиент 6"/><linearGradient id="d" x1="226.69" x2="260.62" y1="415.49" y2="267.18" data-name="Безымянный градиент 8" gradientUnits="userSpaceOnUse"><stop offset=".12" stop-color="#966d97"/><stop offset=".72" stop-color="#e5aea9"/></linearGradient><linearGradient id="b" x1="282.47" x2="185.12" y1="48.12" y2="437.51" data-name="Безымянный градиент 7" gradientUnits="userSpaceOnUse"><stop offset=".12" stop-color="#966d97"/><stop offset=".52" stop-color="#e5aea9"/></linearGradient><linearGradient xlink:href="#a" id="e" x1="332.76" x2="283.2" y1="141.31" y2="259.38" data-name="Безымянный градиент 6"/><linearGradient xlink:href="#b" id="f" x1="181.84" x2="225.24" y1="326.63" y2="289.23" data-name="Безымянный градиент 7"/><linearGradient xlink:href="#b" id="g" x1="174.15" x2="243.27" y1="397.49" y2="288.87" data-name="Безымянный градиент 7"/><linearGradient xlink:href="#a" id="h" x1="310.65" x2="252.68" y1="126.12" y2="215.88" data-name="Безымянный градиент 6"/></defs><rect width="500" height="500" rx="65.26" ry="65.26" style="fill:#2d203c"/><path d="M245.77 33.51c-2.37 4.74-5.02 9.37-7.06 14.25-11.96 28.53-14.44 57.81-8.13 88.21 6.8 32.72 24.18 59.41 45.33 84.23 14.17 16.63 29.14 32.66 42.32 50.04 29.16 38.44 29.86 86.94 2.84 126.84a106.7 106.7 0 0 1-13.32 16.07c1.67-8.11 3.53-16.18 4.96-24.33 4.29-24.53-.1-47.93-9.28-70.76-10.05-24.98-26.71-45.23-45.1-64.37-17.31-18.01-34.77-35.91-47.03-58.06-19.29-34.86-23.65-71.16-9.95-108.85 7.57-20.82 19.97-38.42 38.69-50.99 1.57-1.05 3.22-1.98 4.84-2.97.29.23.58.46.87.68Z" style="fill:url(#a)"/><path d="M255.07 467.17c4.52-11.91 9.99-23.05 12.99-34.82 8.94-35.01 5.39-69.06-9.72-102.01-10.86-23.68-27.1-43.38-44.19-62.61-14.15-15.91-28.88-31.32-39.73-49.98-24.2-41.62-19.2-91.72 13.32-127.43 1.62-1.78 3.27-3.51 5.73-6.14-1.82 7.31-3.42 13.47-4.88 19.67-6.97 29.71-1.5 57.85 10.9 85.07 9.86 21.65 25.26 39.25 41.29 56.4 17.04 18.23 34.81 35.85 47.13 57.96 21.99 39.47 25.19 79.91 5.63 121.11-8.46 17.82-21.13 32.42-38.47 42.78" style="fill:url(#c)"/><path d="M249.72 331.07c6.38 13.53 11.58 26.33 13.61 40.11 1.28 8.72 1.65 17.59 2.13 26.4.12 2.1-.36 4.71-1.57 6.34-9.89 13.34-20.02 26.5-30.28 39.99-15.37-9.38-28.65-20.28-40.86-33.81 18.79-26.07 37.57-52.13 56.96-79.04Z" style="fill:url(#d)"/><path d="M250.31 167.91c-11.46-22.22-16.19-44.47-15.88-67.89.01-.99.3-2.14.88-2.92 10.16-13.75 20.39-27.46 30.84-41.48 15.95 9.12 28.95 20.04 41.33 33.32-18.86 26.05-37.71 52.08-57.17 78.97" style="fill:url(#b)"/><path d="M318.33 104.18c33.55 32.41 28.36 111.42-8.41 142.55l-26.65-29.9c27.2-32.67 45.07-67.96 35.06-112.65" style="fill:url(#e)"/><path d="M190.11 252.66c8.81 9.91 17.42 19.6 26.45 29.74-13.32 15.52-24.22 32.39-31.31 51.63-7.15 19.43-8.5 39.12-3.79 59.76-33.12-30.48-28.29-107.32 8.65-141.14Z" style="fill:url(#f)"/><path d="M189.65 401.22c-11.62-44.63 4.67-79.96 32.1-113.38 6.13 8.65 12.17 16.77 17.76 25.18 6.92 10.4 6.57 10.37-.84 20.47-13.62 18.58-27 37.35-40.48 56.03-2.61 3.62-5.26 7.22-8.54 11.7" style="fill:url(#g)"/><path d="M309.7 98.54c11.58 34.85.2 76.2-32.28 112.77-7.52-11.1-14.95-21.88-22.06-32.87-.76-1.18-.26-4 .68-5.33 13.61-19.04 27.42-37.94 41.14-56.9 4.14-5.72 8.16-11.51 12.51-17.67Z" style="fill:url(#h)"/></svg>
