<?xml version="1.0" encoding="UTF-8"?>
<svg id="_Слой_1" data-name="Слой 1" xmlns="http://www.w3.org/2000/svg" viewBox="0 0 201.49 482.2">
  <path d="M96.05,.76c-2.63,5.27-5.57,10.4-7.84,15.82-13.28,31.67-16.03,64.18-9.02,97.93,7.55,36.33,26.85,65.95,50.33,93.51,15.73,18.46,32.35,36.26,46.99,55.55,32.37,42.68,33.15,96.52,3.16,140.82-4.29,6.34-9.17,12.27-14.78,17.84,1.85-9,3.92-17.96,5.51-27.01,4.77-27.23-.11-53.22-10.31-78.55-11.16-27.73-29.65-50.21-50.06-71.46-19.21-20-38.61-39.87-52.21-64.46-21.42-38.7-26.25-79-11.05-120.84,8.4-23.11,22.18-42.65,42.96-56.61,1.74-1.17,3.58-2.2,5.37-3.3,.32,.25,.64,.51,.96,.76Z"/>
  <path d="M106.38,482.2c5.02-13.22,11.09-25.59,14.42-38.66,9.92-38.86,5.99-76.66-10.8-113.25-12.06-26.29-30.08-48.16-49.06-69.5-15.71-17.67-32.06-34.77-44.11-55.48C-10.04,159.1-4.48,103.47,31.62,63.82c1.8-1.97,3.64-3.9,6.36-6.82-2.02,8.11-3.8,14.96-5.41,21.84-7.73,32.98-1.66,64.22,12.1,94.45,10.94,24.04,28.05,43.57,45.84,62.61,18.92,20.24,38.65,39.8,52.32,64.35,24.41,43.82,27.96,88.72,6.25,134.46-9.39,19.78-23.45,35.99-42.7,47.49Z"/>
  <path d="M100.44,331.11c7.08,15.03,12.86,29.23,15.11,44.53,1.42,9.68,1.83,19.52,2.37,29.31,.13,2.34-.4,5.23-1.74,7.04-10.98,14.81-22.22,29.42-33.61,44.39-17.06-10.42-31.8-22.51-45.36-37.53,20.86-28.95,41.71-57.88,63.24-87.75Z"/>
  <path d="M101.09,149.97c-12.72-24.67-17.97-49.38-17.63-75.37,.01-1.09,.34-2.38,.97-3.24,11.28-15.27,22.64-30.48,34.24-46.06,17.71,10.12,32.14,22.24,45.89,37-20.94,28.92-41.86,57.82-63.47,87.67Z"/>
  <path d="M176.61,79.21c37.25,35.98,31.49,123.69-9.34,158.25-9.84-11.04-19.67-22.07-29.58-33.19,30.2-36.27,50.04-75.44,38.92-125.06Z"/>
  <path d="M34.25,244.05c9.78,11,19.34,21.76,29.36,33.02-14.78,17.23-26.89,35.96-34.75,57.32-7.94,21.57-9.44,43.43-4.21,66.35-36.77-33.84-31.41-119.15,9.6-156.7Z"/>
  <path d="M33.75,408.99c-12.9-49.55,5.18-88.77,35.64-125.88,6.81,9.61,13.51,18.62,19.72,27.95,7.68,11.55,7.29,11.51-.94,22.73-15.13,20.63-29.97,41.46-44.94,62.2-2.9,4.02-5.84,8.01-9.48,12.99Z"/>
  <path d="M167.02,72.95c12.86,38.69,.23,84.59-35.83,125.2-8.34-12.32-16.6-24.29-24.49-36.49-.85-1.31-.29-4.45,.76-5.92,15.11-21.14,30.44-42.12,45.67-63.17,4.59-6.35,9.06-12.78,13.89-19.62Z"/>
</svg>
